<mxfile host="65bd71144e">
    <diagram id="xLaYoiQ9NeMkjPrhk9XN" name="Page-1">
        <mxGraphModel dx="493" dy="413" grid="1" gridSize="10" guides="1" tooltips="1" connect="1" arrows="1" fold="1" page="1" pageScale="1" pageWidth="1100" pageHeight="850" math="0" shadow="0">
            <root>
                <object label="" id="0">
                    <mxCell/>
                </object>
                <mxCell id="1" parent="0"/>
                <mxCell id="10" value="" style="shape=umlLifeline;participant=umlActor;perimeter=lifelinePerimeter;whiteSpace=wrap;html=1;container=1;collapsible=0;recursiveResize=0;verticalAlign=top;spacingTop=36;outlineConnect=0;fontColor=#ffffff;" vertex="1" parent="1">
                    <mxGeometry x="70" y="66" width="20" height="302" as="geometry"/>
                </mxCell>
                <mxCell id="12" value="" style="html=1;points=[];perimeter=orthogonalPerimeter;fontColor=#ffffff;" vertex="1" parent="10">
                    <mxGeometry x="5" y="74" width="10" height="82" as="geometry"/>
                </mxCell>
                <mxCell id="11" value="" style="shape=umlLifeline;participant=umlBoundary;perimeter=lifelinePerimeter;whiteSpace=wrap;html=1;container=1;collapsible=0;recursiveResize=0;verticalAlign=top;spacingTop=36;outlineConnect=0;fontColor=#ffffff;size=50;" vertex="1" parent="1">
                    <mxGeometry x="210" y="70" width="60" height="338" as="geometry"/>
                </mxCell>
                <mxCell id="14" value="el, value" style="html=1;verticalAlign=bottom;startArrow=oval;startFill=1;endArrow=block;startSize=8;strokeColor=#F0F0F0;fontColor=#ffffff;exitX=1.039;exitY=0.02;exitDx=0;exitDy=0;exitPerimeter=0;entryX=-0.109;entryY=0.163;entryDx=0;entryDy=0;entryPerimeter=0;" edge="1" parent="1" source="12" target="13">
                    <mxGeometry width="60" relative="1" as="geometry">
                        <mxPoint x="610" y="426" as="sourcePoint"/>
                        <mxPoint x="220" y="128" as="targetPoint"/>
                    </mxGeometry>
                </mxCell>
                <mxCell id="15" value="Text" style="text;html=1;align=center;verticalAlign=middle;resizable=0;points=[];autosize=1;strokeColor=none;fillColor=none;fontColor=#ffffff;" vertex="1" parent="1">
                    <mxGeometry x="135" y="131" width="50" height="30" as="geometry"/>
                </mxCell>
                <mxCell id="16" value="" style="shape=umlLifeline;participant=umlBoundary;perimeter=lifelinePerimeter;whiteSpace=wrap;html=1;container=1;collapsible=0;recursiveResize=0;verticalAlign=top;spacingTop=36;outlineConnect=0;fontColor=#ffffff;" vertex="1" parent="1">
                    <mxGeometry x="370" y="66" width="50" height="440" as="geometry"/>
                </mxCell>
                <mxCell id="25" value="" style="html=1;points=[];perimeter=orthogonalPerimeter;fontColor=#ffffff;" vertex="1" parent="16">
                    <mxGeometry x="20" y="95" width="10" height="80" as="geometry"/>
                </mxCell>
                <mxCell id="35" value="setpoint" style="html=1;verticalAlign=bottom;startArrow=oval;startFill=1;endArrow=block;startSize=8;strokeColor=#F0F0F0;fontColor=#ffffff;entryX=0.049;entryY=0.018;entryDx=0;entryDy=0;entryPerimeter=0;" edge="1" parent="16">
                    <mxGeometry x="0.0007" y="10" width="60" relative="1" as="geometry">
                        <mxPoint x="30" y="164" as="sourcePoint"/>
                        <mxPoint x="225.49" y="165.44000000000005" as="targetPoint"/>
                        <mxPoint as="offset"/>
                    </mxGeometry>
                </mxCell>
                <mxCell id="18" value="JSon &lt;br&gt;PID, DID, DT, Val&amp;nbsp;" style="html=1;verticalAlign=bottom;startArrow=none;startFill=1;endArrow=block;startSize=8;strokeColor=#F0F0F0;fontColor=#ffffff;" edge="1" parent="1" source="13">
                    <mxGeometry x="-0.1034" y="9" width="60" relative="1" as="geometry">
                        <mxPoint x="240" y="166" as="sourcePoint"/>
                        <mxPoint x="390" y="166" as="targetPoint"/>
                        <Array as="points">
                            <mxPoint x="310" y="166"/>
                        </Array>
                        <mxPoint as="offset"/>
                    </mxGeometry>
                </mxCell>
                <mxCell id="19" value="server.js" style="text;html=1;align=center;verticalAlign=middle;resizable=0;points=[];autosize=1;strokeColor=none;fillColor=none;fontColor=#ffffff;" vertex="1" parent="1">
                    <mxGeometry x="205" y="25" width="70" height="30" as="geometry"/>
                </mxCell>
                <mxCell id="22" value="" style="html=1;verticalAlign=bottom;startArrow=oval;startFill=1;endArrow=none;startSize=8;strokeColor=#F0F0F0;fontColor=#ffffff;" edge="1" parent="1" target="13">
                    <mxGeometry width="60" relative="1" as="geometry">
                        <mxPoint x="240" y="166" as="sourcePoint"/>
                        <mxPoint x="394.5" y="165.9999999999999" as="targetPoint"/>
                        <Array as="points"/>
                    </mxGeometry>
                </mxCell>
                <mxCell id="13" value="" style="html=1;points=[];perimeter=orthogonalPerimeter;fontColor=#ffffff;" vertex="1" parent="1">
                    <mxGeometry x="235" y="131" width="10" height="52" as="geometry"/>
                </mxCell>
                <mxCell id="23" value="User action" style="text;html=1;align=center;verticalAlign=middle;resizable=0;points=[];autosize=1;strokeColor=none;fillColor=none;fontColor=#ffffff;" vertex="1" parent="1">
                    <mxGeometry x="40" y="25" width="80" height="30" as="geometry"/>
                </mxCell>
                <mxCell id="24" value="Svr.cpp" style="text;html=1;align=center;verticalAlign=middle;resizable=0;points=[];autosize=1;strokeColor=none;fillColor=none;fontColor=#ffffff;" vertex="1" parent="1">
                    <mxGeometry x="370" y="25" width="60" height="30" as="geometry"/>
                </mxCell>
                <mxCell id="26" value="&lt;div style=&quot;color: rgb(212, 212, 212); background-color: rgb(30, 30, 30); font-family: Consolas, &amp;quot;Courier New&amp;quot;, monospace; line-height: 16px;&quot;&gt;&lt;span style=&quot;color: #dcdcaa;&quot;&gt;handleWebSocketMessage&lt;/span&gt;&lt;/div&gt;" style="text;html=1;align=center;verticalAlign=middle;resizable=0;points=[];autosize=1;strokeColor=none;fillColor=none;fontColor=#ffffff;" vertex="1" parent="1">
                    <mxGeometry x="300" y="190" width="170" height="30" as="geometry"/>
                </mxCell>
                <mxCell id="27" value="Web Socket" style="text;html=1;align=center;verticalAlign=middle;resizable=0;points=[];autosize=1;strokeColor=none;fillColor=none;fontColor=#ffffff;" vertex="1" parent="1">
                    <mxGeometry x="270" y="161" width="90" height="30" as="geometry"/>
                </mxCell>
                <mxCell id="29" value="" style="shape=umlLifeline;participant=umlBoundary;perimeter=lifelinePerimeter;whiteSpace=wrap;html=1;container=1;collapsible=0;recursiveResize=0;verticalAlign=top;spacingTop=36;outlineConnect=0;fontColor=#ffffff;" vertex="1" parent="1">
                    <mxGeometry x="580" y="66" width="50" height="300" as="geometry"/>
                </mxCell>
                <mxCell id="30" value="Peer" style="text;html=1;align=center;verticalAlign=middle;resizable=0;points=[];autosize=1;strokeColor=none;fillColor=none;fontColor=#ffffff;" vertex="1" parent="1">
                    <mxGeometry x="575" y="25" width="50" height="30" as="geometry"/>
                </mxCell>
                <mxCell id="38" value="ESP-NOW" style="text;html=1;align=center;verticalAlign=middle;resizable=0;points=[];autosize=1;strokeColor=none;fillColor=none;fontColor=#ffffff;" vertex="1" parent="1">
                    <mxGeometry x="460" y="224" width="80" height="30" as="geometry"/>
                </mxCell>
                <mxCell id="55" value="package" style="shape=folder;fontStyle=1;spacingTop=10;tabWidth=40;tabHeight=14;tabPosition=left;html=1;fontColor=#ffffff;" vertex="1" parent="1">
                    <mxGeometry x="570" y="220" width="70" height="50" as="geometry"/>
                </mxCell>
                <mxCell id="56" value="package" style="shape=folder;fontStyle=1;spacingTop=10;tabWidth=40;tabHeight=14;tabPosition=left;html=1;fontColor=#ffffff;" vertex="1" parent="1">
                    <mxGeometry x="570" y="220" width="70" height="50" as="geometry"/>
                </mxCell>
                <mxCell id="57" value="package" style="shape=folder;fontStyle=1;spacingTop=10;tabWidth=40;tabHeight=14;tabPosition=left;html=1;fontColor=#ffffff;" vertex="1" parent="1">
                    <mxGeometry x="570" y="220" width="70" height="50" as="geometry"/>
                </mxCell>
                <mxCell id="58" value="frame" style="shape=umlFrame;whiteSpace=wrap;html=1;fontColor=#ffffff;direction=west;" vertex="1" parent="1">
                    <mxGeometry x="480" y="160" width="240" height="160" as="geometry"/>
                </mxCell>
            </root>
        </mxGraphModel>
    </diagram>
</mxfile>